<?xml version="1.0" standalone="no"?>
<!DOCTYPE svg PUBLIC "-//W3C//DTD SVG 1.1//EN"
  "http://www.w3.org/Graphics/SVG/1.1/DTD/svg11.dtd">
<svg width="140.0999984741211mm" height="113mm" viewBox="-59.099998474121094 -60 140.0999984741211 113" xmlns="http://www.w3.org/2000/svg" version="1.1">
	<title>svgOutput</title>
	<desc>made with tinkercad</desc>
<path d="M 27.197999954223633 31.101999282836914 L 27.197999954223633 49.79999923706055 L 26.197999954223633 49.79999923706055 L 25 49.79999923706055 L 25 -56.70000076293945 L 26.197999954223633 -56.70000076293945 L 26.197999954223633 31.101999282836914 L 27.197999954223633 31.101999282836914 M 80 49.79999923706055 L 79.2030029296875 49.79999923706055 L 77.2030029296875 49.79999923706055 L 77.2030029296875 22.101999282836914 L 79.2030029296875 22.101999282836914 L 79.2030029296875 -39.89799880981445 L 79.2030029296875 -56.70000076293945 L 80 -56.70000076293945 L 80 49.79999923706055 M 1.899999976158142 52 L -0.10000000149011612 52 L -0.996999979019165 52 L -56.00299835205078 52 L -56.099998474121094 52 L -58.099998474121094 52 L -58.099998474121094 -59 L -56.099998474121094 -59 L -56.00299835205078 -59 L -0.996999979019165 -59 L -0.10000000149011612 -59 L 1.899999976158142 -59 L 1.899999976158142 52 z" fill="none" stroke="rgb(0,0,255)" stroke-width="0.01mm" />
</svg>